SplineFontDB: 3.2
FontName: Silkscreen
FullName: Silkscreen
FamilyName: Silkscreen
Weight: Book
Copyright: send bread and water to jason@kottke.org
Version: 1.0 Sat Aug 21 15:44:28 1999
ItalicAngle: 0
UnderlinePosition: -143
UnderlineWidth: 20
Ascent: 840
Descent: 210
InvalidEm: 0
sfntRevision: 0x00010000
LayerCount: 2
Layer: 0 1 "Back" 1
Layer: 1 1 "Fore" 0
XUID: [1021 917 -1426347924 31221]
StyleMap: 0x0040
FSType: 2
OS2Version: 0
OS2_WeightWidthSlopeOnly: 0
OS2_UseTypoMetrics: 0
CreationTime: -1147576532
ModificationTime: 1099426296
PfmFamily: 81
TTFWeight: 400
TTFWidth: 5
LineGap: 0
VLineGap: 0
Panose: 0 0 0 0 0 0 0 0 0 0
OS2TypoAscent: 800
OS2TypoAOffset: 0
OS2TypoDescent: 246
OS2TypoDOffset: 0
OS2TypoLinegap: 0
OS2WinAscent: 800
OS2WinAOffset: 0
OS2WinDescent: 125
OS2WinDOffset: 0
HheadAscent: 800
HheadAOffset: 0
HheadDescent: -250
HheadDOffset: 0
OS2SubXSize: 732
OS2SubYSize: 680
OS2SubXOff: 0
OS2SubYOff: 150
OS2SupXSize: 732
OS2SupYSize: 680
OS2SupXOff: 0
OS2SupYOff: 474
OS2StrikeYSize: 52
OS2StrikeYPos: 271
OS2Vendor: 'Alts'
OS2UnicodeRanges: 00000000.00000000.00000000.00000000
DEI: 91125
ShortTable: maxp 16
  1
  0
  98
  36
  9
  0
  0
  2
  8
  64
  10
  0
  93
  0
  0
  0
EndShort
LangName: 1033 "" "" "Normal" "kott:Silkscreen" "" "1.0 Sat Aug 21 15:44:28 1999"
Encoding: UnicodeBmp
UnicodeInterp: none
NameList: AGL For New Fonts
DisplaySize: -48
AntiAlias: 1
FitToEm: 0
WinInfo: 0 16 4
BeginChars: 65539 98

StartChar: exclam
Encoding: 33 33 4
Width: 375
GlyphClass: 1
Flags: W
LayerCount: 2
Fore
SplineSet
125 250 m 1,0,-1
 125 625 l 1,1,-1
 250 625 l 1,2,-1
 250 250 l 1,3,-1
 125 250 l 1,0,-1
125 125 m 1,4,-1
 250 125 l 1,5,-1
 250 0 l 1,6,-1
 125 0 l 1,7,-1
 125 125 l 1,4,-1
EndSplineSet
EndChar

StartChar: quotedbl
Encoding: 34 34 5
Width: 625
GlyphClass: 1
Flags: W
LayerCount: 2
Fore
SplineSet
250 375 m 1,0,-1
 125 375 l 1,1,-1
 125 625 l 1,2,-1
 250 625 l 1,3,-1
 250 375 l 1,0,-1
500 375 m 1,4,-1
 375 375 l 1,5,-1
 375 625 l 1,6,-1
 500 625 l 1,7,-1
 500 375 l 1,4,-1
EndSplineSet
EndChar

StartChar: numbersign
Encoding: 35 35 6
Width: 875
GlyphClass: 1
Flags: W
LayerCount: 2
Fore
SplineSet
125 500 m 1,0,-1
 250 500 l 1,1,-1
 250 375 l 1,2,-1
 125 375 l 1,3,-1
 125 500 l 1,0,-1
250 0 m 1,4,-1
 250 625 l 1,5,-1
 375 625 l 1,6,-1
 375 0 l 1,7,-1
 250 0 l 1,4,-1
500 0 m 1,8,-1
 500 625 l 1,9,-1
 625 625 l 1,10,-1
 625 0 l 1,11,-1
 500 0 l 1,8,-1
375 500 m 1,12,-1
 500 500 l 1,13,-1
 500 375 l 1,14,-1
 375 375 l 1,15,-1
 375 500 l 1,12,-1
625 500 m 1,16,-1
 750 500 l 1,17,-1
 750 375 l 1,18,-1
 625 375 l 1,19,-1
 625 500 l 1,16,-1
125 250 m 1,20,-1
 250 250 l 1,21,-1
 250 125 l 1,22,-1
 125 125 l 1,23,-1
 125 250 l 1,20,-1
375 250 m 1,24,-1
 500 250 l 1,25,-1
 500 125 l 1,26,-1
 375 125 l 1,27,-1
 375 250 l 1,24,-1
625 250 m 1,28,-1
 750 250 l 1,29,-1
 750 125 l 1,30,-1
 625 125 l 1,31,-1
 625 250 l 1,28,-1
EndSplineSet
EndChar

StartChar: dollar
Encoding: 36 36 7
Width: 750
GlyphClass: 1
Flags: W
LayerCount: 2
Fore
SplineSet
625 500 m 1,0,-1
 250 500 l 1,1,-1
 250 625 l 1,2,-1
 625 625 l 1,3,-1
 625 500 l 1,0,-1
500 250 m 1,4,-1
 250 250 l 1,5,-1
 250 375 l 1,6,-1
 500 375 l 1,7,-1
 500 250 l 1,4,-1
250 375 m 1,8,-1
 125 375 l 1,9,-1
 125 500 l 1,10,-1
 250 500 l 1,11,-1
 250 375 l 1,8,-1
625 0 m 1,12,-1
 125 0 l 1,13,-1
 125 125 l 1,14,-1
 500 125 l 1,15,-1
 500 250 l 1,16,-1
 625 250 l 1,17,-1
 625 0 l 1,12,-1
375 -125 m 1,18,-1
 250 -125 l 1,19,-1
 250 0 l 1,20,-1
 375 0 l 1,21,-1
 375 -125 l 1,18,-1
500 625 m 1,22,-1
 375 625 l 1,23,-1
 375 750 l 1,24,-1
 500 750 l 1,25,-1
 500 625 l 1,22,-1
EndSplineSet
EndChar

StartChar: percent
Encoding: 37 37 8
Width: 875
GlyphClass: 1
Flags: W
LayerCount: 2
Fore
SplineSet
250 0 m 1,0,-1
 250 250 l 1,1,-1
 375 250 l 1,2,-1
 375 0 l 1,3,-1
 250 0 l 1,0,-1
375 250 m 1,4,-1
 375 375 l 1,5,-1
 500 375 l 1,6,-1
 500 250 l 1,7,-1
 375 250 l 1,4,-1
500 375 m 1,8,-1
 500 625 l 1,9,-1
 625 625 l 1,10,-1
 625 375 l 1,11,-1
 500 375 l 1,8,-1
125 375 m 1,12,-1
 125 625 l 1,13,-1
 375 625 l 1,14,-1
 375 375 l 1,15,-1
 125 375 l 1,12,-1
500 0 m 1,16,-1
 500 250 l 1,17,-1
 750 250 l 1,18,-1
 750 0 l 1,19,-1
 500 0 l 1,16,-1
EndSplineSet
EndChar

StartChar: ampersand
Encoding: 38 38 9
Width: 750
GlyphClass: 1
Flags: W
LayerCount: 2
Fore
SplineSet
625 500 m 1,0,-1
 250 500 l 1,1,-1
 250 625 l 1,2,-1
 625 625 l 1,3,-1
 625 500 l 1,0,-1
500 250 m 1,4,-1
 250 250 l 1,5,-1
 250 375 l 1,6,-1
 500 375 l 1,7,-1
 500 250 l 1,4,-1
250 375 m 1,8,-1
 125 375 l 1,9,-1
 125 500 l 1,10,-1
 250 500 l 1,11,-1
 250 375 l 1,8,-1
625 0 m 1,12,-1
 250 0 l 1,13,-1
 250 125 l 1,14,-1
 625 125 l 1,15,-1
 625 0 l 1,12,-1
250 125 m 1,16,-1
 125 125 l 1,17,-1
 125 250 l 1,18,-1
 250 250 l 1,19,-1
 250 125 l 1,16,-1
500 -125 m 1,20,-1
 375 -125 l 1,21,-1
 375 0 l 1,22,-1
 500 0 l 1,23,-1
 500 -125 l 1,20,-1
500 625 m 1,24,-1
 375 625 l 1,25,-1
 375 750 l 1,26,-1
 500 750 l 1,27,-1
 500 625 l 1,24,-1
EndSplineSet
EndChar

StartChar: quotesingle
Encoding: 39 39 10
Width: 375
GlyphClass: 1
Flags: W
LayerCount: 2
Fore
SplineSet
250 375 m 1,0,-1
 125 375 l 1,1,-1
 125 625 l 1,2,-1
 250 625 l 1,3,-1
 250 375 l 1,0,-1
EndSplineSet
EndChar

StartChar: parenleft
Encoding: 40 40 11
Width: 500
GlyphClass: 1
Flags: W
LayerCount: 2
Fore
SplineSet
375 500 m 1,0,-1
 250 500 l 1,1,-1
 250 625 l 1,2,-1
 375 625 l 1,3,-1
 375 500 l 1,0,-1
250 125 m 1,4,-1
 125 125 l 1,5,-1
 125 500 l 1,6,-1
 250 500 l 1,7,-1
 250 125 l 1,4,-1
375 0 m 1,8,-1
 250 0 l 1,9,-1
 250 125 l 1,10,-1
 375 125 l 1,11,-1
 375 0 l 1,8,-1
250 0 m 1024,12,-1
EndSplineSet
EndChar

StartChar: parenright
Encoding: 41 41 12
Width: 500
GlyphClass: 1
Flags: W
LayerCount: 2
Fore
SplineSet
250 500 m 1,0,-1
 125 500 l 1,1,-1
 125 625 l 1,2,-1
 250 625 l 1,3,-1
 250 500 l 1,0,-1
375 125 m 1,4,-1
 250 125 l 1,5,-1
 250 500 l 1,6,-1
 375 500 l 1,7,-1
 375 125 l 1,4,-1
250 0 m 1,8,-1
 125 0 l 1,9,-1
 125 125 l 1,10,-1
 250 125 l 1,11,-1
 250 0 l 1,8,-1
250 0 m 1024,12,-1
EndSplineSet
EndChar

StartChar: asterisk
Encoding: 42 42 13
Width: 875
GlyphClass: 1
Flags: W
LayerCount: 2
Fore
SplineSet
500 375 m 1,0,-1
 625 375 l 1,1,-1
 625 250 l 1,2,-1
 500 250 l 1,3,-1
 500 375 l 1,0,-1
625 500 m 1,4,-1
 750 500 l 1,5,-1
 750 375 l 1,6,-1
 625 375 l 1,7,-1
 625 500 l 1,4,-1
625 250 m 1,8,-1
 750 250 l 1,9,-1
 750 125 l 1,10,-1
 625 125 l 1,11,-1
 625 250 l 1,8,-1
125 250 m 1,12,-1
 250 250 l 1,13,-1
 250 125 l 1,14,-1
 125 125 l 1,15,-1
 125 250 l 1,12,-1
250 375 m 1,16,-1
 375 375 l 1,17,-1
 375 250 l 1,18,-1
 250 250 l 1,19,-1
 250 375 l 1,16,-1
125 500 m 1,20,-1
 250 500 l 1,21,-1
 250 375 l 1,22,-1
 125 375 l 1,23,-1
 125 500 l 1,20,-1
375 0 m 1,24,-1
 375 625 l 1,25,-1
 500 625 l 1,26,-1
 500 0 l 1,27,-1
 375 0 l 1,24,-1
EndSplineSet
EndChar

StartChar: plus
Encoding: 43 43 14
Width: 875
GlyphClass: 1
Flags: W
LayerCount: 2
Fore
SplineSet
125 250 m 1,0,-1
 375 250 l 1,1,-1
 375 0 l 1,2,-1
 500 0 l 1,3,-1
 500 250 l 1,4,-1
 750 250 l 1,5,-1
 750 375 l 1,6,-1
 500 375 l 1,7,-1
 500 625 l 1,8,-1
 375 625 l 1,9,-1
 375 375 l 1,10,-1
 125 375 l 1,11,-1
 125 250 l 1,0,-1
EndSplineSet
EndChar

StartChar: comma
Encoding: 44 44 15
Width: 375
GlyphClass: 1
Flags: W
LayerCount: 2
Fore
SplineSet
125 125 m 1,0,-1
 250 125 l 1,1,-1
 250 0 l 1,2,-1
 125 0 l 1,3,-1
 125 125 l 1,0,-1
0 0 m 1,4,-1
 125 0 l 1,5,-1
 125 -125 l 1,6,-1
 0 -125 l 1,7,-1
 0 0 l 1,4,-1
EndSplineSet
EndChar

StartChar: hyphen
Encoding: 45 45 16
Width: 625
GlyphClass: 1
Flags: W
LayerCount: 2
Fore
SplineSet
500 250 m 1,0,-1
 125 250 l 1,1,-1
 125 375 l 1,2,-1
 500 375 l 1,3,-1
 500 250 l 1,0,-1
EndSplineSet
EndChar

StartChar: period
Encoding: 46 46 17
Width: 250
GlyphClass: 1
Flags: W
LayerCount: 2
Fore
SplineSet
0 125 m 1,0,-1
 125 125 l 1,1,-1
 125 0 l 1,2,-1
 0 0 l 1,3,-1
 0 125 l 1,0,-1
EndSplineSet
EndChar

StartChar: slash
Encoding: 47 47 18
Width: 625
GlyphClass: 1
Flags: W
LayerCount: 2
Fore
SplineSet
500 375 m 1,0,-1
 375 375 l 1,1,-1
 375 625 l 1,2,-1
 500 625 l 1,3,-1
 500 375 l 1,0,-1
375 250 m 1,4,-1
 250 250 l 1,5,-1
 250 375 l 1,6,-1
 375 375 l 1,7,-1
 375 250 l 1,4,-1
250 0 m 1,8,-1
 125 0 l 1,9,-1
 125 250 l 1,10,-1
 250 250 l 1,11,-1
 250 0 l 1,8,-1
EndSplineSet
EndChar

StartChar: zero
Encoding: 48 48 19
Width: 750
GlyphClass: 1
Flags: W
LayerCount: 2
Fore
SplineSet
500 500 m 1,0,-1
 250 500 l 1,1,-1
 250 625 l 1,2,-1
 500 625 l 1,3,-1
 500 500 l 1,0,-1
250 125 m 1,4,-1
 125 125 l 1,5,-1
 125 500 l 1,6,-1
 250 500 l 1,7,-1
 250 125 l 1,4,-1
500 0 m 1,8,-1
 250 0 l 1,9,-1
 250 125 l 1,10,-1
 500 125 l 1,11,-1
 500 0 l 1,8,-1
250 0 m 1024,12,-1
625 125 m 1,13,-1
 500 125 l 1,14,-1
 500 500 l 1,15,-1
 625 500 l 1,16,-1
 625 125 l 1,13,-1
EndSplineSet
EndChar

StartChar: one
Encoding: 49 49 20
Width: 625
GlyphClass: 1
Flags: W
LayerCount: 2
Fore
SplineSet
250 500 m 1,0,-1
 125 500 l 1,1,-1
 125 625 l 1,2,-1
 375 625 l 1,3,-1
 375 125 l 1,4,-1
 500 125 l 1,5,-1
 500 0 l 1,6,-1
 125 0 l 1,7,-1
 125 125 l 1,8,-1
 250 125 l 1,9,-1
 250 500 l 1,0,-1
EndSplineSet
EndChar

StartChar: two
Encoding: 50 50 21
Width: 750
GlyphClass: 1
Flags: W
LayerCount: 2
Fore
SplineSet
125 0 m 1,0,-1
 125 250 l 1,1,-1
 250 250 l 1,2,-1
 250 125 l 1,3,-1
 625 125 l 1,4,-1
 625 0 l 1,5,-1
 125 0 l 1,0,-1
500 500 m 1,6,-1
 625 500 l 1,7,-1
 625 375 l 1,8,-1
 500 375 l 1,9,-1
 500 500 l 1,6,-1
500 500 m 1,10,-1
 125 500 l 1,11,-1
 125 625 l 1,12,-1
 500 625 l 1,13,-1
 500 500 l 1,10,-1
250 375 m 1,14,-1
 500 375 l 1,15,-1
 500 250 l 1,16,-1
 250 250 l 1,17,-1
 250 375 l 1,14,-1
EndSplineSet
EndChar

StartChar: three
Encoding: 51 51 22
Width: 750
GlyphClass: 1
Flags: W
LayerCount: 2
Fore
SplineSet
500 500 m 1,0,-1
 625 500 l 1,1,-1
 625 375 l 1,2,-1
 500 375 l 1,3,-1
 500 500 l 1,0,-1
500 500 m 1,4,-1
 125 500 l 1,5,-1
 125 625 l 1,6,-1
 500 625 l 1,7,-1
 500 500 l 1,4,-1
250 375 m 1,8,-1
 500 375 l 1,9,-1
 500 250 l 1,10,-1
 250 250 l 1,11,-1
 250 375 l 1,8,-1
500 250 m 1,12,-1
 625 250 l 1,13,-1
 625 125 l 1,14,-1
 500 125 l 1,15,-1
 500 250 l 1,12,-1
500 0 m 1,16,-1
 125 0 l 1,17,-1
 125 125 l 1,18,-1
 500 125 l 1,19,-1
 500 0 l 1,16,-1
EndSplineSet
EndChar

StartChar: four
Encoding: 52 52 23
Width: 750
GlyphClass: 1
Flags: W
LayerCount: 2
Fore
SplineSet
125 625 m 1,0,-1
 125 125 l 1,1,-1
 375 125 l 1,2,-1
 375 0 l 1,3,-1
 500 0 l 1,4,-1
 500 125 l 1,5,-1
 625 125 l 1,6,-1
 625 250 l 1,7,-1
 500 250 l 1,8,-1
 500 625 l 1,9,-1
 375 625 l 1,10,-1
 375 250 l 1,11,-1
 250 250 l 1,12,-1
 250 625 l 1,13,-1
 125 625 l 1,0,-1
EndSplineSet
EndChar

StartChar: five
Encoding: 53 53 24
Width: 750
GlyphClass: 1
Flags: W
LayerCount: 2
Fore
SplineSet
125 625 m 1,0,-1
 125 250 l 1,1,-1
 500 250 l 1,2,-1
 500 375 l 1,3,-1
 250 375 l 1,4,-1
 250 500 l 1,5,-1
 625 500 l 1,6,-1
 625 625 l 1,7,-1
 125 625 l 1,0,-1
500 250 m 1,8,-1
 625 250 l 1,9,-1
 625 125 l 1,10,-1
 500 125 l 1,11,-1
 500 250 l 1,8,-1
500 0 m 1,12,-1
 125 0 l 1,13,-1
 125 125 l 1,14,-1
 500 125 l 1,15,-1
 500 0 l 1,12,-1
EndSplineSet
EndChar

StartChar: six
Encoding: 54 54 25
Width: 750
GlyphClass: 1
Flags: W
LayerCount: 2
Fore
SplineSet
250 625 m 1,0,-1
 500 625 l 1,1,-1
 500 500 l 1,2,-1
 250 500 l 1,3,-1
 250 625 l 1,0,-1
500 250 m 1,4,-1
 625 250 l 1,5,-1
 625 125 l 1,6,-1
 500 125 l 1,7,-1
 500 250 l 1,4,-1
250 125 m 1,8,-1
 500 125 l 1,9,-1
 500 0 l 1,10,-1
 250 0 l 1,11,-1
 250 125 l 1,8,-1
125 500 m 1,12,-1
 125 125 l 1,13,-1
 250 125 l 1,14,-1
 250 250 l 1,15,-1
 500 250 l 1,16,-1
 500 375 l 1,17,-1
 250 375 l 1,18,-1
 250 500 l 1,19,-1
 125 500 l 1,12,-1
EndSplineSet
EndChar

StartChar: seven
Encoding: 55 55 26
Width: 750
GlyphClass: 1
Flags: W
LayerCount: 2
Fore
SplineSet
625 625 m 1,0,-1
 625 375 l 1,1,-1
 500 375 l 1,2,-1
 500 500 l 1,3,-1
 125 500 l 1,4,-1
 125 625 l 1,5,-1
 625 625 l 1,0,-1
375 375 m 1,6,-1
 500 375 l 1,7,-1
 500 250 l 1,8,-1
 375 250 l 1,9,-1
 375 375 l 1,6,-1
375 0 m 1,10,-1
 250 0 l 1,11,-1
 250 250 l 1,12,-1
 375 250 l 1,13,-1
 375 0 l 1,10,-1
EndSplineSet
EndChar

StartChar: eight
Encoding: 56 56 27
Width: 750
GlyphClass: 1
Flags: W
LayerCount: 2
Fore
SplineSet
500 500 m 1,0,-1
 625 500 l 1,1,-1
 625 375 l 1,2,-1
 500 375 l 1,3,-1
 500 500 l 1,0,-1
500 500 m 1,4,-1
 250 500 l 1,5,-1
 250 625 l 1,6,-1
 500 625 l 1,7,-1
 500 500 l 1,4,-1
250 375 m 1,8,-1
 500 375 l 1,9,-1
 500 250 l 1,10,-1
 250 250 l 1,11,-1
 250 375 l 1,8,-1
500 250 m 1,12,-1
 625 250 l 1,13,-1
 625 125 l 1,14,-1
 500 125 l 1,15,-1
 500 250 l 1,12,-1
500 0 m 1,16,-1
 250 0 l 1,17,-1
 250 125 l 1,18,-1
 500 125 l 1,19,-1
 500 0 l 1,16,-1
125 500 m 1,20,-1
 250 500 l 1,21,-1
 250 375 l 1,22,-1
 125 375 l 1,23,-1
 125 500 l 1,20,-1
125 250 m 1,24,-1
 250 250 l 1,25,-1
 250 125 l 1,26,-1
 125 125 l 1,27,-1
 125 250 l 1,24,-1
EndSplineSet
EndChar

StartChar: nine
Encoding: 57 57 28
Width: 750
GlyphClass: 1
Flags: W
LayerCount: 2
Fore
SplineSet
500 0 m 1,0,-1
 250 0 l 1,1,-1
 250 125 l 1,2,-1
 500 125 l 1,3,-1
 500 0 l 1,0,-1
250 375 m 1,4,-1
 125 375 l 1,5,-1
 125 500 l 1,6,-1
 250 500 l 1,7,-1
 250 375 l 1,4,-1
500 500 m 1,8,-1
 250 500 l 1,9,-1
 250 625 l 1,10,-1
 500 625 l 1,11,-1
 500 500 l 1,8,-1
625 125 m 1,12,-1
 625 500 l 1,13,-1
 500 500 l 1,14,-1
 500 375 l 1,15,-1
 250 375 l 1,16,-1
 250 250 l 1,17,-1
 500 250 l 1,18,-1
 500 125 l 1,19,-1
 625 125 l 1,12,-1
EndSplineSet
EndChar

StartChar: colon
Encoding: 58 58 29
Width: 250
GlyphClass: 1
Flags: W
LayerCount: 2
Fore
SplineSet
0 250 m 1,0,-1
 125 250 l 1,1,-1
 125 125 l 1,2,-1
 0 125 l 1,3,-1
 0 250 l 1,0,-1
0 500 m 1,4,-1
 125 500 l 1,5,-1
 125 375 l 1,6,-1
 0 375 l 1,7,-1
 0 500 l 1,4,-1
EndSplineSet
EndChar

StartChar: semicolon
Encoding: 59 59 30
Width: 375
GlyphClass: 1
Flags: W
LayerCount: 2
Fore
SplineSet
125 250 m 1,0,-1
 250 250 l 1,1,-1
 250 125 l 1,2,-1
 125 125 l 1,3,-1
 125 250 l 1,0,-1
125 500 m 1,4,-1
 250 500 l 1,5,-1
 250 375 l 1,6,-1
 125 375 l 1,7,-1
 125 500 l 1,4,-1
0 125 m 1,8,-1
 125 125 l 1,9,-1
 125 0 l 1,10,-1
 0 0 l 1,11,-1
 0 125 l 1,8,-1
EndSplineSet
EndChar

StartChar: less
Encoding: 60 60 31
Width: 625
GlyphClass: 1
Flags: W
LayerCount: 2
Fore
SplineSet
375 125 m 1,0,-1
 500 125 l 1,1,-1
 500 0 l 1,2,-1
 375 0 l 1,3,-1
 375 125 l 1,0,-1
250 250 m 1,4,-1
 375 250 l 1,5,-1
 375 125 l 1,6,-1
 250 125 l 1,7,-1
 250 250 l 1,4,-1
125 375 m 1,8,-1
 250 375 l 1,9,-1
 250 250 l 1,10,-1
 125 250 l 1,11,-1
 125 375 l 1,8,-1
250 500 m 1,12,-1
 375 500 l 1,13,-1
 375 375 l 1,14,-1
 250 375 l 1,15,-1
 250 500 l 1,12,-1
375 625 m 1,16,-1
 500 625 l 1,17,-1
 500 500 l 1,18,-1
 375 500 l 1,19,-1
 375 625 l 1,16,-1
EndSplineSet
EndChar

StartChar: equal
Encoding: 61 61 32
Width: 625
GlyphClass: 1
Flags: W
LayerCount: 2
Fore
SplineSet
500 125 m 1,0,-1
 125 125 l 1,1,-1
 125 250 l 1,2,-1
 500 250 l 1,3,-1
 500 125 l 1,0,-1
500 375 m 1,4,-1
 125 375 l 1,5,-1
 125 500 l 1,6,-1
 500 500 l 1,7,-1
 500 375 l 1,4,-1
EndSplineSet
EndChar

StartChar: greater
Encoding: 62 62 33
Width: 625
GlyphClass: 1
Flags: W
LayerCount: 2
Fore
SplineSet
125 125 m 1,0,-1
 250 125 l 1,1,-1
 250 0 l 1,2,-1
 125 0 l 1,3,-1
 125 125 l 1,0,-1
250 250 m 1,4,-1
 375 250 l 1,5,-1
 375 125 l 1,6,-1
 250 125 l 1,7,-1
 250 250 l 1,4,-1
375 375 m 1,8,-1
 500 375 l 1,9,-1
 500 250 l 1,10,-1
 375 250 l 1,11,-1
 375 375 l 1,8,-1
250 500 m 1,12,-1
 375 500 l 1,13,-1
 375 375 l 1,14,-1
 250 375 l 1,15,-1
 250 500 l 1,12,-1
125 625 m 1,16,-1
 250 625 l 1,17,-1
 250 500 l 1,18,-1
 125 500 l 1,19,-1
 125 625 l 1,16,-1
EndSplineSet
EndChar

StartChar: question
Encoding: 63 63 34
Width: 750
GlyphClass: 1
Flags: W
LayerCount: 2
Fore
SplineSet
500 500 m 1,0,-1
 625 500 l 1,1,-1
 625 375 l 1,2,-1
 500 375 l 1,3,-1
 500 500 l 1,0,-1
500 500 m 1,4,-1
 125 500 l 1,5,-1
 125 625 l 1,6,-1
 500 625 l 1,7,-1
 500 500 l 1,4,-1
250 375 m 1,8,-1
 500 375 l 1,9,-1
 500 250 l 1,10,-1
 250 250 l 1,11,-1
 250 375 l 1,8,-1
250 125 m 1,12,-1
 375 125 l 1,13,-1
 375 0 l 1,14,-1
 250 0 l 1,15,-1
 250 125 l 1,12,-1
EndSplineSet
EndChar

StartChar: at
Encoding: 64 64 35
Width: 875
GlyphClass: 1
Flags: W
LayerCount: 2
Fore
SplineSet
250 125 m 1,0,-1
 125 125 l 1,1,-1
 125 500 l 1,2,-1
 250 500 l 1,3,-1
 250 125 l 1,0,-1
625 0 m 1,4,-1
 250 0 l 1,5,-1
 250 125 l 1,6,-1
 625 125 l 1,7,-1
 625 0 l 1,4,-1
250 0 m 1024,8,-1
250 625 m 1,9,-1
 250 500 l 1,10,-1
 375 500 l 1,11,-1
 375 250 l 1,12,-1
 625 250 l 1,13,-1
 625 375 l 1,14,-1
 500 375 l 1,15,-1
 500 500 l 1,16,-1
 625 500 l 1,17,-1
 625 625 l 1,18,-1
 250 625 l 1,9,-1
625 500 m 1,19,-1
 750 500 l 1,20,-1
 750 375 l 1,21,-1
 625 375 l 1,22,-1
 625 500 l 1,19,-1
EndSplineSet
EndChar

StartChar: A
Encoding: 65 65 36
Width: 750
GlyphClass: 1
Flags: W
LayerCount: 2
Fore
SplineSet
128 0 m 1,0,-1
 128 500 l 1,1,-1
 253 500 l 1,2,-1
 253 375 l 1,3,-1
 503 375 l 1,4,-1
 503 500 l 1,5,-1
 628 500 l 1,6,-1
 628 0 l 1,7,-1
 503 0 l 1,8,-1
 503 250 l 1,9,-1
 253 250 l 1,10,-1
 253 0 l 1,11,-1
 128 0 l 1,0,-1
253 625 m 1,12,-1
 253 500 l 1,13,-1
 503 500 l 1,14,-1
 503 625 l 1,15,-1
 253 625 l 1,12,-1
EndSplineSet
EndChar

StartChar: B
Encoding: 66 66 37
Width: 750
GlyphClass: 1
Flags: W
LayerCount: 2
Fore
SplineSet
625 500 m 1,0,-1
 625 375 l 1,1,-1
 500 375 l 1,2,-1
 500 500 l 1,3,-1
 625 500 l 1,0,-1
625 250 m 1,4,-1
 625 125 l 1,5,-1
 500 125 l 1,6,-1
 500 250 l 1,7,-1
 625 250 l 1,4,-1
500 500 m 1,8,-1
 250 500 l 1,9,-1
 250 375 l 1,10,-1
 500 375 l 1,11,-1
 500 250 l 1,12,-1
 250 250 l 1,13,-1
 250 125 l 1,14,-1
 500 125 l 1,15,-1
 500 0 l 1,16,-1
 125 0 l 1,17,-1
 125 625 l 1,18,-1
 500 625 l 1,19,-1
 500 500 l 1,8,-1
EndSplineSet
EndChar

StartChar: C
Encoding: 67 67 38
Width: 750
GlyphClass: 1
Flags: W
LayerCount: 2
Fore
SplineSet
625 375 m 1,0,-1
 500 375 l 1,1,-1
 500 500 l 1,2,-1
 625 500 l 1,3,-1
 625 375 l 1,0,-1
500 500 m 1,4,-1
 250 500 l 1,5,-1
 250 625 l 1,6,-1
 500 625 l 1,7,-1
 500 500 l 1,4,-1
625 125 m 1,8,-1
 500 125 l 1,9,-1
 500 250 l 1,10,-1
 625 250 l 1,11,-1
 625 125 l 1,8,-1
250 125 m 1,12,-1
 125 125 l 1,13,-1
 125 500 l 1,14,-1
 250 500 l 1,15,-1
 250 125 l 1,12,-1
500 0 m 1,16,-1
 250 0 l 1,17,-1
 250 125 l 1,18,-1
 500 125 l 1,19,-1
 500 0 l 1,16,-1
250 0 m 1024,20,-1
500 250 m 1024,21,-1
EndSplineSet
EndChar

StartChar: D
Encoding: 68 68 39
Width: 750
GlyphClass: 1
Flags: W
LayerCount: 2
Fore
SplineSet
125 0 m 1,0,-1
 125 625 l 1,1,-1
 500 625 l 1,2,-1
 500 500 l 1,3,-1
 250 500 l 1,4,-1
 250 125 l 1,5,-1
 500 125 l 1,6,-1
 500 0 l 1,7,-1
 125 0 l 1,0,-1
625 500 m 1,8,-1
 625 125 l 1,9,-1
 500 125 l 1,10,-1
 500 500 l 1,11,-1
 625 500 l 1,8,-1
EndSplineSet
EndChar

StartChar: E
Encoding: 69 69 40
Width: 625
GlyphClass: 1
Flags: W
LayerCount: 2
Fore
SplineSet
500 500 m 1,0,-1
 250 500 l 1,1,-1
 250 375 l 1,2,-1
 500 375 l 1,3,-1
 500 250 l 1,4,-1
 250 250 l 1,5,-1
 250 125 l 1,6,-1
 500 125 l 1,7,-1
 500 0 l 1,8,-1
 125 0 l 1,9,-1
 125 625 l 1,10,-1
 500 625 l 1,11,-1
 500 500 l 1,0,-1
EndSplineSet
EndChar

StartChar: F
Encoding: 70 70 41
Width: 625
GlyphClass: 1
Flags: W
LayerCount: 2
Fore
SplineSet
125 0 m 1,0,-1
 125 625 l 1,1,-1
 500 625 l 1,2,-1
 500 500 l 1,3,-1
 250 500 l 1,4,-1
 250 375 l 1,5,-1
 500 375 l 1,6,-1
 500 250 l 1,7,-1
 250 250 l 1,8,-1
 250 0 l 1,9,-1
 125 0 l 1,0,-1
EndSplineSet
EndChar

StartChar: G
Encoding: 71 71 42
Width: 750
GlyphClass: 1
Flags: W
LayerCount: 2
Fore
SplineSet
625 500 m 1,0,-1
 250 500 l 1,1,-1
 250 625 l 1,2,-1
 625 625 l 1,3,-1
 625 500 l 1,0,-1
250 125 m 1,4,-1
 125 125 l 1,5,-1
 125 500 l 1,6,-1
 250 500 l 1,7,-1
 250 125 l 1,4,-1
500 0 m 1,8,-1
 250 0 l 1,9,-1
 250 125 l 1,10,-1
 500 125 l 1,11,-1
 500 0 l 1,8,-1
250 0 m 1024,12,-1
500 250 m 1,13,-1
 375 250 l 1,14,-1
 375 375 l 1,15,-1
 625 375 l 1,16,-1
 625 125 l 1,17,-1
 500 125 l 1,18,-1
 500 250 l 1,13,-1
EndSplineSet
EndChar

StartChar: H
Encoding: 72 72 43
Width: 750
GlyphClass: 1
Flags: W
LayerCount: 2
Fore
SplineSet
125 0 m 1,0,-1
 125 625 l 1,1,-1
 250 625 l 1,2,-1
 250 375 l 1,3,-1
 500 375 l 1,4,-1
 500 625 l 1,5,-1
 625 625 l 1,6,-1
 625 0 l 1,7,-1
 500 0 l 1,8,-1
 500 250 l 1,9,-1
 250 250 l 1,10,-1
 250 0 l 1,11,-1
 125 0 l 1,0,-1
EndSplineSet
EndChar

StartChar: I
Encoding: 73 73 44
Width: 375
GlyphClass: 1
Flags: W
LayerCount: 2
Fore
SplineSet
125 0 m 1,0,-1
 125 625 l 1,1,-1
 250 625 l 1,2,-1
 250 0 l 1,3,-1
 125 0 l 1,0,-1
EndSplineSet
EndChar

StartChar: J
Encoding: 74 74 45
Width: 750
GlyphClass: 1
Flags: W
LayerCount: 2
Fore
SplineSet
500 625 m 1,0,-1
 625 625 l 1,1,-1
 625 125 l 1,2,-1
 500 125 l 1,3,-1
 500 625 l 1,0,-1
500 0 m 1,4,-1
 250 0 l 1,5,-1
 250 125 l 1,6,-1
 500 125 l 1,7,-1
 500 0 l 1,4,-1
125 250 m 1,8,-1
 250 250 l 1,9,-1
 250 125 l 1,10,-1
 125 125 l 1,11,-1
 125 250 l 1,8,-1
EndSplineSet
EndChar

StartChar: K
Encoding: 75 75 46
Width: 750
GlyphClass: 1
Flags: W
LayerCount: 2
Fore
SplineSet
250 250 m 1,0,-1
 250 0 l 1,1,-1
 125 0 l 1,2,-1
 125 625 l 1,3,-1
 250 625 l 1,4,-1
 250 375 l 1,5,-1
 375 375 l 1,6,-1
 375 250 l 1,7,-1
 250 250 l 1,0,-1
375 500 m 1,8,-1
 500 500 l 1,9,-1
 500 375 l 1,10,-1
 375 375 l 1,11,-1
 375 500 l 1,8,-1
500 625 m 1,12,-1
 625 625 l 1,13,-1
 625 500 l 1,14,-1
 500 500 l 1,15,-1
 500 625 l 1,12,-1
375 250 m 1,16,-1
 500 250 l 1,17,-1
 500 125 l 1,18,-1
 375 125 l 1,19,-1
 375 250 l 1,16,-1
500 125 m 1,20,-1
 625 125 l 1,21,-1
 625 0 l 1,22,-1
 500 0 l 1,23,-1
 500 125 l 1,20,-1
EndSplineSet
EndChar

StartChar: L
Encoding: 76 76 47
Width: 625
GlyphClass: 1
Flags: W
LayerCount: 2
Fore
SplineSet
250 125 m 1,0,-1
 500 125 l 1,1,-1
 500 0 l 1,2,-1
 125 0 l 1,3,-1
 125 625 l 1,4,-1
 250 625 l 1,5,-1
 250 125 l 1,0,-1
EndSplineSet
EndChar

StartChar: M
Encoding: 77 77 48
Width: 875
GlyphClass: 1
Flags: W
LayerCount: 2
Fore
SplineSet
125 0 m 1,0,-1
 125 625 l 1,1,-1
 250 625 l 1,2,-1
 250 0 l 1,3,-1
 125 0 l 1,0,-1
625 0 m 1,4,-1
 625 625 l 1,5,-1
 750 625 l 1,6,-1
 750 0 l 1,7,-1
 625 0 l 1,4,-1
500 500 m 1,8,-1
 625 500 l 1,9,-1
 625 375 l 1,10,-1
 500 375 l 1,11,-1
 500 500 l 1,8,-1
375 375 m 1,12,-1
 500 375 l 1,13,-1
 500 250 l 1,14,-1
 375 250 l 1,15,-1
 375 375 l 1,12,-1
250 500 m 1,16,-1
 375 500 l 1,17,-1
 375 375 l 1,18,-1
 250 375 l 1,19,-1
 250 500 l 1,16,-1
EndSplineSet
EndChar

StartChar: N
Encoding: 78 78 49
Width: 875
GlyphClass: 1
Flags: W
LayerCount: 2
Fore
SplineSet
125 0 m 1,0,-1
 125 625 l 1,1,-1
 250 625 l 1,2,-1
 250 0 l 1,3,-1
 125 0 l 1,0,-1
625 0 m 1,4,-1
 625 625 l 1,5,-1
 750 625 l 1,6,-1
 750 0 l 1,7,-1
 625 0 l 1,4,-1
500 250 m 1,8,-1
 625 250 l 1,9,-1
 625 125 l 1,10,-1
 500 125 l 1,11,-1
 500 250 l 1,8,-1
375 375 m 1,12,-1
 500 375 l 1,13,-1
 500 250 l 1,14,-1
 375 250 l 1,15,-1
 375 375 l 1,12,-1
250 500 m 1,16,-1
 375 500 l 1,17,-1
 375 375 l 1,18,-1
 250 375 l 1,19,-1
 250 500 l 1,16,-1
EndSplineSet
EndChar

StartChar: O
Encoding: 79 79 50
Width: 750
GlyphClass: 1
Flags: W
LayerCount: 2
Fore
SplineSet
500 500 m 1,0,-1
 250 500 l 1,1,-1
 250 625 l 1,2,-1
 500 625 l 1,3,-1
 500 500 l 1,0,-1
250 125 m 1,4,-1
 125 125 l 1,5,-1
 125 500 l 1,6,-1
 250 500 l 1,7,-1
 250 125 l 1,4,-1
500 0 m 1,8,-1
 250 0 l 1,9,-1
 250 125 l 1,10,-1
 500 125 l 1,11,-1
 500 0 l 1,8,-1
250 0 m 1024,12,-1
625 125 m 1,13,-1
 500 125 l 1,14,-1
 500 500 l 1,15,-1
 625 500 l 1,16,-1
 625 125 l 1,13,-1
EndSplineSet
EndChar

StartChar: P
Encoding: 80 80 51
Width: 750
GlyphClass: 1
Flags: W
LayerCount: 2
Fore
SplineSet
125 0 m 1,0,-1
 125 625 l 1,1,-1
 500 625 l 1,2,-1
 500 500 l 1,3,-1
 250 500 l 1,4,-1
 250 375 l 1,5,-1
 500 375 l 1,6,-1
 500 250 l 1,7,-1
 250 250 l 1,8,-1
 250 0 l 1,9,-1
 125 0 l 1,0,-1
500 500 m 1,10,-1
 625 500 l 1,11,-1
 625 375 l 1,12,-1
 500 375 l 1,13,-1
 500 500 l 1,10,-1
EndSplineSet
EndChar

StartChar: Q
Encoding: 81 81 52
Width: 750
GlyphClass: 1
Flags: W
LayerCount: 2
Fore
SplineSet
500 500 m 1,0,-1
 250 500 l 1,1,-1
 250 625 l 1,2,-1
 500 625 l 1,3,-1
 500 500 l 1,0,-1
250 125 m 1,4,-1
 125 125 l 1,5,-1
 125 500 l 1,6,-1
 250 500 l 1,7,-1
 250 125 l 1,4,-1
500 0 m 1,8,-1
 250 0 l 1,9,-1
 250 125 l 1,10,-1
 500 125 l 1,11,-1
 500 0 l 1,8,-1
250 0 m 1024,12,-1
625 125 m 1,13,-1
 500 125 l 1,14,-1
 500 500 l 1,15,-1
 625 500 l 1,16,-1
 625 125 l 1,13,-1
500 0 m 1,17,-1
 625 0 l 1,18,-1
 625 -125 l 1,19,-1
 500 -125 l 1,20,-1
 500 0 l 1,17,-1
EndSplineSet
EndChar

StartChar: R
Encoding: 82 82 53
Width: 750
GlyphClass: 1
Flags: W
LayerCount: 2
Fore
SplineSet
125 0 m 1,0,-1
 125 625 l 1,1,-1
 500 625 l 1,2,-1
 500 500 l 1,3,-1
 250 500 l 1,4,-1
 250 375 l 1,5,-1
 500 375 l 1,6,-1
 500 250 l 1,7,-1
 250 250 l 1,8,-1
 250 0 l 1,9,-1
 125 0 l 1,0,-1
500 500 m 1,10,-1
 625 500 l 1,11,-1
 625 375 l 1,12,-1
 500 375 l 1,13,-1
 500 500 l 1,10,-1
375 250 m 1,14,-1
 500 250 l 1,15,-1
 500 125 l 1,16,-1
 375 125 l 1,17,-1
 375 250 l 1,14,-1
500 125 m 1,18,-1
 625 125 l 1,19,-1
 625 0 l 1,20,-1
 500 0 l 1,21,-1
 500 125 l 1,18,-1
EndSplineSet
EndChar

StartChar: S
Encoding: 83 83 54
Width: 750
GlyphClass: 1
Flags: W
LayerCount: 2
Fore
SplineSet
125 0 m 1,0,-1
 125 125 l 1,1,-1
 500 125 l 1,2,-1
 500 0 l 1,3,-1
 125 0 l 1,0,-1
250 500 m 1,4,-1
 250 625 l 1,5,-1
 625 625 l 1,6,-1
 625 500 l 1,7,-1
 250 500 l 1,4,-1
250 250 m 1,8,-1
 500 250 l 1,9,-1
 500 375 l 1,10,-1
 250 375 l 1,11,-1
 250 250 l 1,8,-1
500 250 m 1,12,-1
 625 250 l 1,13,-1
 625 125 l 1,14,-1
 500 125 l 1,15,-1
 500 250 l 1,12,-1
125 500 m 1,16,-1
 250 500 l 1,17,-1
 250 375 l 1,18,-1
 125 375 l 1,19,-1
 125 500 l 1,16,-1
EndSplineSet
EndChar

StartChar: T
Encoding: 84 84 55
Width: 625
GlyphClass: 1
Flags: W
LayerCount: 2
Fore
SplineSet
250 0 m 1,0,-1
 250 500 l 1,1,-1
 125 500 l 1,2,-1
 125 625 l 1,3,-1
 500 625 l 1,4,-1
 500 500 l 1,5,-1
 375 500 l 1,6,-1
 375 0 l 1,7,-1
 250 0 l 1,0,-1
EndSplineSet
EndChar

StartChar: U
Encoding: 85 85 56
Width: 750
GlyphClass: 1
Flags: W
LayerCount: 2
Fore
SplineSet
500 625 m 1,0,-1
 625 625 l 1,1,-1
 625 125 l 1,2,-1
 500 125 l 1,3,-1
 500 625 l 1,0,-1
500 0 m 1,4,-1
 250 0 l 1,5,-1
 250 125 l 1,6,-1
 500 125 l 1,7,-1
 500 0 l 1,4,-1
125 625 m 1,8,-1
 250 625 l 1,9,-1
 250 125 l 1,10,-1
 125 125 l 1,11,-1
 125 625 l 1,8,-1
EndSplineSet
EndChar

StartChar: V
Encoding: 86 86 57
Width: 875
GlyphClass: 1
Flags: W
LayerCount: 2
Fore
SplineSet
125 375 m 1,0,-1
 125 625 l 1,1,-1
 250 625 l 1,2,-1
 250 375 l 1,3,-1
 125 375 l 1,0,-1
375 125 m 1,4,-1
 500 125 l 1,5,-1
 500 0 l 1,6,-1
 375 0 l 1,7,-1
 375 125 l 1,4,-1
250 125 m 1,8,-1
 250 375 l 1,9,-1
 375 375 l 1,10,-1
 375 125 l 1,11,-1
 250 125 l 1,8,-1
500 125 m 1,12,-1
 500 375 l 1,13,-1
 625 375 l 1,14,-1
 625 125 l 1,15,-1
 500 125 l 1,12,-1
625 375 m 1,16,-1
 625 625 l 1,17,-1
 750 625 l 1,18,-1
 750 375 l 1,19,-1
 625 375 l 1,16,-1
EndSplineSet
EndChar

StartChar: W
Encoding: 87 87 58
Width: 875
GlyphClass: 1
Flags: W
LayerCount: 2
Fore
SplineSet
125 125 m 1,0,-1
 125 625 l 1,1,-1
 250 625 l 1,2,-1
 250 125 l 1,3,-1
 125 125 l 1,0,-1
500 125 m 1,4,-1
 625 125 l 1,5,-1
 625 0 l 1,6,-1
 500 0 l 1,7,-1
 500 125 l 1,4,-1
250 125 m 1,8,-1
 375 125 l 1,9,-1
 375 0 l 1,10,-1
 250 0 l 1,11,-1
 250 125 l 1,8,-1
625 125 m 1,12,-1
 625 625 l 1,13,-1
 750 625 l 1,14,-1
 750 125 l 1,15,-1
 625 125 l 1,12,-1
375 125 m 1,16,-1
 375 500 l 1,17,-1
 500 500 l 1,18,-1
 500 125 l 1,19,-1
 375 125 l 1,16,-1
EndSplineSet
EndChar

StartChar: X
Encoding: 88 88 59
Width: 875
GlyphClass: 1
Flags: W
LayerCount: 2
Fore
SplineSet
125 125 m 1,0,-1
 250 125 l 1,1,-1
 250 0 l 1,2,-1
 125 0 l 1,3,-1
 125 125 l 1,0,-1
250 250 m 1,4,-1
 375 250 l 1,5,-1
 375 125 l 1,6,-1
 250 125 l 1,7,-1
 250 250 l 1,4,-1
375 375 m 1,8,-1
 500 375 l 1,9,-1
 500 250 l 1,10,-1
 375 250 l 1,11,-1
 375 375 l 1,8,-1
500 500 m 1,12,-1
 625 500 l 1,13,-1
 625 375 l 1,14,-1
 500 375 l 1,15,-1
 500 500 l 1,12,-1
625 625 m 1,16,-1
 750 625 l 1,17,-1
 750 500 l 1,18,-1
 625 500 l 1,19,-1
 625 625 l 1,16,-1
250 500 m 1,20,-1
 375 500 l 1,21,-1
 375 375 l 1,22,-1
 250 375 l 1,23,-1
 250 500 l 1,20,-1
125 625 m 1,24,-1
 250 625 l 1,25,-1
 250 500 l 1,26,-1
 125 500 l 1,27,-1
 125 625 l 1,24,-1
500 250 m 1,28,-1
 625 250 l 1,29,-1
 625 125 l 1,30,-1
 500 125 l 1,31,-1
 500 250 l 1,28,-1
625 125 m 1,32,-1
 750 125 l 1,33,-1
 750 0 l 1,34,-1
 625 0 l 1,35,-1
 625 125 l 1,32,-1
EndSplineSet
EndChar

StartChar: Y
Encoding: 89 89 60
Width: 875
GlyphClass: 1
Flags: W
LayerCount: 2
Fore
SplineSet
500 500 m 1,0,-1
 625 500 l 1,1,-1
 625 375 l 1,2,-1
 500 375 l 1,3,-1
 500 500 l 1,0,-1
250 500 m 1,4,-1
 375 500 l 1,5,-1
 375 375 l 1,6,-1
 250 375 l 1,7,-1
 250 500 l 1,4,-1
375 0 m 1,8,-1
 375 375 l 1,9,-1
 500 375 l 1,10,-1
 500 0 l 1,11,-1
 375 0 l 1,8,-1
125 625 m 1,12,-1
 250 625 l 1,13,-1
 250 500 l 1,14,-1
 125 500 l 1,15,-1
 125 625 l 1,12,-1
625 625 m 1,16,-1
 750 625 l 1,17,-1
 750 500 l 1,18,-1
 625 500 l 1,19,-1
 625 625 l 1,16,-1
EndSplineSet
EndChar

StartChar: Z
Encoding: 90 90 61
Width: 625
GlyphClass: 1
Flags: W
LayerCount: 2
Fore
SplineSet
125 0 m 1,0,-1
 125 250 l 1,1,-1
 250 250 l 1,2,-1
 250 125 l 1,3,-1
 500 125 l 1,4,-1
 500 0 l 1,5,-1
 125 0 l 1,0,-1
500 625 m 1,6,-1
 500 375 l 1,7,-1
 375 375 l 1,8,-1
 375 500 l 1,9,-1
 125 500 l 1,10,-1
 125 625 l 1,11,-1
 500 625 l 1,6,-1
250 375 m 1,12,-1
 375 375 l 1,13,-1
 375 250 l 1,14,-1
 250 250 l 1,15,-1
 250 375 l 1,12,-1
EndSplineSet
EndChar

StartChar: bracketleft
Encoding: 91 91 62
Width: 500
GlyphClass: 1
Flags: W
LayerCount: 2
Fore
SplineSet
125 0 m 1,0,-1
 125 625 l 1,1,-1
 375 625 l 1,2,-1
 375 500 l 1,3,-1
 250 500 l 1,4,-1
 250 125 l 1,5,-1
 375 125 l 1,6,-1
 375 0 l 1,7,-1
 125 0 l 1,0,-1
EndSplineSet
EndChar

StartChar: backslash
Encoding: 92 92 63
Width: 625
GlyphClass: 1
Flags: W
LayerCount: 2
Fore
SplineSet
250 375 m 1,0,-1
 125 375 l 1,1,-1
 125 625 l 1,2,-1
 250 625 l 1,3,-1
 250 375 l 1,0,-1
375 250 m 1,4,-1
 250 250 l 1,5,-1
 250 375 l 1,6,-1
 375 375 l 1,7,-1
 375 250 l 1,4,-1
500 0 m 1,8,-1
 375 0 l 1,9,-1
 375 250 l 1,10,-1
 500 250 l 1,11,-1
 500 0 l 1,8,-1
EndSplineSet
EndChar

StartChar: bracketright
Encoding: 93 93 64
Width: 500
GlyphClass: 1
Flags: W
LayerCount: 2
Fore
SplineSet
375 0 m 1,0,-1
 125 0 l 1,1,-1
 125 125 l 1,2,-1
 250 125 l 1,3,-1
 250 500 l 1,4,-1
 125 500 l 1,5,-1
 125 625 l 1,6,-1
 375 625 l 1,7,-1
 375 0 l 1,0,-1
EndSplineSet
EndChar

StartChar: asciicircum
Encoding: 94 94 65
Width: 625
GlyphClass: 1
Flags: W
LayerCount: 2
Fore
SplineSet
125 500 m 1,0,-1
 250 500 l 1,1,-1
 250 375 l 1,2,-1
 125 375 l 1,3,-1
 125 500 l 1,0,-1
250 625 m 1,4,-1
 375 625 l 1,5,-1
 375 500 l 1,6,-1
 250 500 l 1,7,-1
 250 625 l 1,4,-1
375 500 m 1,8,-1
 500 500 l 1,9,-1
 500 375 l 1,10,-1
 375 375 l 1,11,-1
 375 500 l 1,8,-1
EndSplineSet
EndChar

StartChar: underscore
Encoding: 95 95 66
Width: 750
GlyphClass: 1
Flags: W
LayerCount: 2
Fore
SplineSet
625 -125 m 1,0,-1
 125 -125 l 1,1,-1
 125 0 l 1,2,-1
 625 0 l 1,3,-1
 625 -125 l 1,0,-1
EndSplineSet
EndChar

StartChar: grave
Encoding: 96 96 67
Width: 500
GlyphClass: 1
Flags: W
LayerCount: 2
Fore
SplineSet
250 500 m 1,0,-1
 125 500 l 1,1,-1
 125 625 l 1,2,-1
 250 625 l 1,3,-1
 250 500 l 1,0,-1
375 375 m 1,4,-1
 250 375 l 1,5,-1
 250 500 l 1,6,-1
 375 500 l 1,7,-1
 375 375 l 1,4,-1
250 0 m 1024,8,-1
EndSplineSet
EndChar

StartChar: a
Encoding: 97 97 68
Width: 750
GlyphClass: 1
Flags: W
LayerCount: 2
Fore
SplineSet
128 0 m 1,0,-1
 128 500 l 1,1,-1
 253 500 l 1,2,-1
 253 375 l 1,3,-1
 503 375 l 1,4,-1
 503 500 l 1,5,-1
 628 500 l 1,6,-1
 628 0 l 1,7,-1
 503 0 l 1,8,-1
 503 250 l 1,9,-1
 253 250 l 1,10,-1
 253 0 l 1,11,-1
 128 0 l 1,0,-1
253 625 m 1,12,-1
 253 500 l 1,13,-1
 503 500 l 1,14,-1
 503 625 l 1,15,-1
 253 625 l 1,12,-1
EndSplineSet
EndChar

StartChar: b
Encoding: 98 98 69
Width: 750
GlyphClass: 1
Flags: W
LayerCount: 2
Fore
SplineSet
625 500 m 1,0,-1
 625 375 l 1,1,-1
 500 375 l 1,2,-1
 500 500 l 1,3,-1
 625 500 l 1,0,-1
625 250 m 1,4,-1
 625 125 l 1,5,-1
 500 125 l 1,6,-1
 500 250 l 1,7,-1
 625 250 l 1,4,-1
500 500 m 1,8,-1
 250 500 l 1,9,-1
 250 375 l 1,10,-1
 500 375 l 1,11,-1
 500 250 l 1,12,-1
 250 250 l 1,13,-1
 250 125 l 1,14,-1
 500 125 l 1,15,-1
 500 0 l 1,16,-1
 125 0 l 1,17,-1
 125 625 l 1,18,-1
 500 625 l 1,19,-1
 500 500 l 1,8,-1
EndSplineSet
EndChar

StartChar: c
Encoding: 99 99 70
Width: 750
GlyphClass: 1
Flags: W
LayerCount: 2
Fore
SplineSet
625 375 m 1,0,-1
 500 375 l 1,1,-1
 500 500 l 1,2,-1
 625 500 l 1,3,-1
 625 375 l 1,0,-1
500 500 m 1,4,-1
 250 500 l 1,5,-1
 250 625 l 1,6,-1
 500 625 l 1,7,-1
 500 500 l 1,4,-1
625 125 m 1,8,-1
 500 125 l 1,9,-1
 500 250 l 1,10,-1
 625 250 l 1,11,-1
 625 125 l 1,8,-1
250 125 m 1,12,-1
 125 125 l 1,13,-1
 125 500 l 1,14,-1
 250 500 l 1,15,-1
 250 125 l 1,12,-1
500 0 m 1,16,-1
 250 0 l 1,17,-1
 250 125 l 1,18,-1
 500 125 l 1,19,-1
 500 0 l 1,16,-1
250 0 m 1024,20,-1
500 250 m 1024,21,-1
EndSplineSet
EndChar

StartChar: d
Encoding: 100 100 71
Width: 750
GlyphClass: 1
Flags: W
LayerCount: 2
Fore
SplineSet
125 0 m 1,0,-1
 125 625 l 1,1,-1
 500 625 l 1,2,-1
 500 500 l 1,3,-1
 250 500 l 1,4,-1
 250 125 l 1,5,-1
 500 125 l 1,6,-1
 500 0 l 1,7,-1
 125 0 l 1,0,-1
625 500 m 1,8,-1
 625 125 l 1,9,-1
 500 125 l 1,10,-1
 500 500 l 1,11,-1
 625 500 l 1,8,-1
EndSplineSet
EndChar

StartChar: e
Encoding: 101 101 72
Width: 625
GlyphClass: 1
Flags: W
LayerCount: 2
Fore
SplineSet
500 500 m 1,0,-1
 250 500 l 1,1,-1
 250 375 l 1,2,-1
 500 375 l 1,3,-1
 500 250 l 1,4,-1
 250 250 l 1,5,-1
 250 125 l 1,6,-1
 500 125 l 1,7,-1
 500 0 l 1,8,-1
 125 0 l 1,9,-1
 125 625 l 1,10,-1
 500 625 l 1,11,-1
 500 500 l 1,0,-1
EndSplineSet
EndChar

StartChar: f
Encoding: 102 102 73
Width: 625
GlyphClass: 1
Flags: W
LayerCount: 2
Fore
SplineSet
125 0 m 1,0,-1
 125 625 l 1,1,-1
 500 625 l 1,2,-1
 500 500 l 1,3,-1
 250 500 l 1,4,-1
 250 375 l 1,5,-1
 500 375 l 1,6,-1
 500 250 l 1,7,-1
 250 250 l 1,8,-1
 250 0 l 1,9,-1
 125 0 l 1,0,-1
EndSplineSet
EndChar

StartChar: g
Encoding: 103 103 74
Width: 750
GlyphClass: 1
Flags: W
LayerCount: 2
Fore
SplineSet
625 500 m 1,0,-1
 250 500 l 1,1,-1
 250 625 l 1,2,-1
 625 625 l 1,3,-1
 625 500 l 1,0,-1
250 125 m 1,4,-1
 125 125 l 1,5,-1
 125 500 l 1,6,-1
 250 500 l 1,7,-1
 250 125 l 1,4,-1
500 0 m 1,8,-1
 250 0 l 1,9,-1
 250 125 l 1,10,-1
 500 125 l 1,11,-1
 500 0 l 1,8,-1
250 0 m 1024,12,-1
500 250 m 1,13,-1
 375 250 l 1,14,-1
 375 375 l 1,15,-1
 625 375 l 1,16,-1
 625 125 l 1,17,-1
 500 125 l 1,18,-1
 500 250 l 1,13,-1
EndSplineSet
EndChar

StartChar: h
Encoding: 104 104 75
Width: 750
GlyphClass: 1
Flags: W
LayerCount: 2
Fore
SplineSet
125 0 m 1,0,-1
 125 625 l 1,1,-1
 250 625 l 1,2,-1
 250 375 l 1,3,-1
 500 375 l 1,4,-1
 500 625 l 1,5,-1
 625 625 l 1,6,-1
 625 0 l 1,7,-1
 500 0 l 1,8,-1
 500 250 l 1,9,-1
 250 250 l 1,10,-1
 250 0 l 1,11,-1
 125 0 l 1,0,-1
EndSplineSet
EndChar

StartChar: i
Encoding: 105 105 76
Width: 375
GlyphClass: 1
Flags: W
LayerCount: 2
Fore
SplineSet
125 0 m 1,0,-1
 125 625 l 1,1,-1
 250 625 l 1,2,-1
 250 0 l 1,3,-1
 125 0 l 1,0,-1
EndSplineSet
EndChar

StartChar: j
Encoding: 106 106 77
Width: 750
GlyphClass: 1
Flags: W
LayerCount: 2
Fore
SplineSet
500 625 m 1,0,-1
 625 625 l 1,1,-1
 625 125 l 1,2,-1
 500 125 l 1,3,-1
 500 625 l 1,0,-1
500 0 m 1,4,-1
 250 0 l 1,5,-1
 250 125 l 1,6,-1
 500 125 l 1,7,-1
 500 0 l 1,4,-1
125 250 m 1,8,-1
 250 250 l 1,9,-1
 250 125 l 1,10,-1
 125 125 l 1,11,-1
 125 250 l 1,8,-1
EndSplineSet
EndChar

StartChar: k
Encoding: 107 107 78
Width: 750
GlyphClass: 1
Flags: W
LayerCount: 2
Fore
SplineSet
250 250 m 1,0,-1
 250 0 l 1,1,-1
 125 0 l 1,2,-1
 125 625 l 1,3,-1
 250 625 l 1,4,-1
 250 375 l 1,5,-1
 375 375 l 1,6,-1
 375 250 l 1,7,-1
 250 250 l 1,0,-1
375 500 m 1,8,-1
 500 500 l 1,9,-1
 500 375 l 1,10,-1
 375 375 l 1,11,-1
 375 500 l 1,8,-1
500 625 m 1,12,-1
 625 625 l 1,13,-1
 625 500 l 1,14,-1
 500 500 l 1,15,-1
 500 625 l 1,12,-1
375 250 m 1,16,-1
 500 250 l 1,17,-1
 500 125 l 1,18,-1
 375 125 l 1,19,-1
 375 250 l 1,16,-1
500 125 m 1,20,-1
 625 125 l 1,21,-1
 625 0 l 1,22,-1
 500 0 l 1,23,-1
 500 125 l 1,20,-1
EndSplineSet
EndChar

StartChar: l
Encoding: 108 108 79
Width: 625
GlyphClass: 1
Flags: W
LayerCount: 2
Fore
SplineSet
250 125 m 1,0,-1
 500 125 l 1,1,-1
 500 0 l 1,2,-1
 125 0 l 1,3,-1
 125 625 l 1,4,-1
 250 625 l 1,5,-1
 250 125 l 1,0,-1
EndSplineSet
EndChar

StartChar: m
Encoding: 109 109 80
Width: 875
GlyphClass: 1
Flags: W
LayerCount: 2
Fore
SplineSet
125 0 m 1,0,-1
 125 625 l 1,1,-1
 250 625 l 1,2,-1
 250 0 l 1,3,-1
 125 0 l 1,0,-1
625 0 m 1,4,-1
 625 625 l 1,5,-1
 750 625 l 1,6,-1
 750 0 l 1,7,-1
 625 0 l 1,4,-1
500 500 m 1,8,-1
 625 500 l 1,9,-1
 625 375 l 1,10,-1
 500 375 l 1,11,-1
 500 500 l 1,8,-1
375 375 m 1,12,-1
 500 375 l 1,13,-1
 500 250 l 1,14,-1
 375 250 l 1,15,-1
 375 375 l 1,12,-1
250 500 m 1,16,-1
 375 500 l 1,17,-1
 375 375 l 1,18,-1
 250 375 l 1,19,-1
 250 500 l 1,16,-1
EndSplineSet
EndChar

StartChar: n
Encoding: 110 110 81
Width: 875
GlyphClass: 1
Flags: W
LayerCount: 2
Fore
SplineSet
125 0 m 1,0,-1
 125 625 l 1,1,-1
 250 625 l 1,2,-1
 250 0 l 1,3,-1
 125 0 l 1,0,-1
625 0 m 1,4,-1
 625 625 l 1,5,-1
 750 625 l 1,6,-1
 750 0 l 1,7,-1
 625 0 l 1,4,-1
500 250 m 1,8,-1
 625 250 l 1,9,-1
 625 125 l 1,10,-1
 500 125 l 1,11,-1
 500 250 l 1,8,-1
375 375 m 1,12,-1
 500 375 l 1,13,-1
 500 250 l 1,14,-1
 375 250 l 1,15,-1
 375 375 l 1,12,-1
250 500 m 1,16,-1
 375 500 l 1,17,-1
 375 375 l 1,18,-1
 250 375 l 1,19,-1
 250 500 l 1,16,-1
EndSplineSet
EndChar

StartChar: o
Encoding: 111 111 82
Width: 750
GlyphClass: 1
Flags: W
LayerCount: 2
Fore
SplineSet
500 500 m 1,0,-1
 250 500 l 1,1,-1
 250 625 l 1,2,-1
 500 625 l 1,3,-1
 500 500 l 1,0,-1
250 125 m 1,4,-1
 125 125 l 1,5,-1
 125 500 l 1,6,-1
 250 500 l 1,7,-1
 250 125 l 1,4,-1
500 0 m 1,8,-1
 250 0 l 1,9,-1
 250 125 l 1,10,-1
 500 125 l 1,11,-1
 500 0 l 1,8,-1
250 0 m 1024,12,-1
625 125 m 1,13,-1
 500 125 l 1,14,-1
 500 500 l 1,15,-1
 625 500 l 1,16,-1
 625 125 l 1,13,-1
EndSplineSet
EndChar

StartChar: p
Encoding: 112 112 83
Width: 750
GlyphClass: 1
Flags: W
LayerCount: 2
Fore
SplineSet
125 0 m 1,0,-1
 125 625 l 1,1,-1
 500 625 l 1,2,-1
 500 500 l 1,3,-1
 250 500 l 1,4,-1
 250 375 l 1,5,-1
 500 375 l 1,6,-1
 500 250 l 1,7,-1
 250 250 l 1,8,-1
 250 0 l 1,9,-1
 125 0 l 1,0,-1
500 500 m 1,10,-1
 625 500 l 1,11,-1
 625 375 l 1,12,-1
 500 375 l 1,13,-1
 500 500 l 1,10,-1
EndSplineSet
EndChar

StartChar: q
Encoding: 113 113 84
Width: 750
GlyphClass: 1
Flags: W
LayerCount: 2
Fore
SplineSet
500 500 m 1,0,-1
 250 500 l 1,1,-1
 250 625 l 1,2,-1
 500 625 l 1,3,-1
 500 500 l 1,0,-1
250 125 m 1,4,-1
 125 125 l 1,5,-1
 125 500 l 1,6,-1
 250 500 l 1,7,-1
 250 125 l 1,4,-1
500 0 m 1,8,-1
 250 0 l 1,9,-1
 250 125 l 1,10,-1
 500 125 l 1,11,-1
 500 0 l 1,8,-1
250 0 m 1024,12,-1
625 125 m 1,13,-1
 500 125 l 1,14,-1
 500 500 l 1,15,-1
 625 500 l 1,16,-1
 625 125 l 1,13,-1
500 0 m 1,17,-1
 625 0 l 1,18,-1
 625 -125 l 1,19,-1
 500 -125 l 1,20,-1
 500 0 l 1,17,-1
EndSplineSet
EndChar

StartChar: r
Encoding: 114 114 85
Width: 750
GlyphClass: 1
Flags: W
LayerCount: 2
Fore
SplineSet
125 0 m 1,0,-1
 125 625 l 1,1,-1
 500 625 l 1,2,-1
 500 500 l 1,3,-1
 250 500 l 1,4,-1
 250 375 l 1,5,-1
 500 375 l 1,6,-1
 500 250 l 1,7,-1
 250 250 l 1,8,-1
 250 0 l 1,9,-1
 125 0 l 1,0,-1
500 500 m 1,10,-1
 625 500 l 1,11,-1
 625 375 l 1,12,-1
 500 375 l 1,13,-1
 500 500 l 1,10,-1
375 250 m 1,14,-1
 500 250 l 1,15,-1
 500 125 l 1,16,-1
 375 125 l 1,17,-1
 375 250 l 1,14,-1
500 125 m 1,18,-1
 625 125 l 1,19,-1
 625 0 l 1,20,-1
 500 0 l 1,21,-1
 500 125 l 1,18,-1
EndSplineSet
EndChar

StartChar: s
Encoding: 115 115 86
Width: 750
GlyphClass: 1
Flags: W
LayerCount: 2
Fore
SplineSet
125 0 m 1,0,-1
 125 125 l 1,1,-1
 500 125 l 1,2,-1
 500 0 l 1,3,-1
 125 0 l 1,0,-1
250 500 m 1,4,-1
 250 625 l 1,5,-1
 625 625 l 1,6,-1
 625 500 l 1,7,-1
 250 500 l 1,4,-1
250 250 m 1,8,-1
 500 250 l 1,9,-1
 500 375 l 1,10,-1
 250 375 l 1,11,-1
 250 250 l 1,8,-1
500 250 m 1,12,-1
 625 250 l 1,13,-1
 625 125 l 1,14,-1
 500 125 l 1,15,-1
 500 250 l 1,12,-1
125 500 m 1,16,-1
 250 500 l 1,17,-1
 250 375 l 1,18,-1
 125 375 l 1,19,-1
 125 500 l 1,16,-1
EndSplineSet
EndChar

StartChar: t
Encoding: 116 116 87
Width: 625
GlyphClass: 1
Flags: W
LayerCount: 2
Fore
SplineSet
250 0 m 1,0,-1
 250 500 l 1,1,-1
 125 500 l 1,2,-1
 125 625 l 1,3,-1
 500 625 l 1,4,-1
 500 500 l 1,5,-1
 375 500 l 1,6,-1
 375 0 l 1,7,-1
 250 0 l 1,0,-1
EndSplineSet
EndChar

StartChar: u
Encoding: 117 117 88
Width: 750
GlyphClass: 1
Flags: W
LayerCount: 2
Fore
SplineSet
500 625 m 1,0,-1
 625 625 l 1,1,-1
 625 125 l 1,2,-1
 500 125 l 1,3,-1
 500 625 l 1,0,-1
500 0 m 1,4,-1
 250 0 l 1,5,-1
 250 125 l 1,6,-1
 500 125 l 1,7,-1
 500 0 l 1,4,-1
125 625 m 1,8,-1
 250 625 l 1,9,-1
 250 125 l 1,10,-1
 125 125 l 1,11,-1
 125 625 l 1,8,-1
EndSplineSet
EndChar

StartChar: v
Encoding: 118 118 89
Width: 875
GlyphClass: 1
Flags: W
LayerCount: 2
Fore
SplineSet
125 375 m 1,0,-1
 125 625 l 1,1,-1
 250 625 l 1,2,-1
 250 375 l 1,3,-1
 125 375 l 1,0,-1
375 125 m 1,4,-1
 500 125 l 1,5,-1
 500 0 l 1,6,-1
 375 0 l 1,7,-1
 375 125 l 1,4,-1
250 125 m 1,8,-1
 250 375 l 1,9,-1
 375 375 l 1,10,-1
 375 125 l 1,11,-1
 250 125 l 1,8,-1
500 125 m 1,12,-1
 500 375 l 1,13,-1
 625 375 l 1,14,-1
 625 125 l 1,15,-1
 500 125 l 1,12,-1
625 375 m 1,16,-1
 625 625 l 1,17,-1
 750 625 l 1,18,-1
 750 375 l 1,19,-1
 625 375 l 1,16,-1
EndSplineSet
EndChar

StartChar: w
Encoding: 119 119 90
Width: 875
GlyphClass: 1
Flags: W
LayerCount: 2
Fore
SplineSet
125 125 m 1,0,-1
 125 625 l 1,1,-1
 250 625 l 1,2,-1
 250 125 l 1,3,-1
 125 125 l 1,0,-1
500 125 m 1,4,-1
 625 125 l 1,5,-1
 625 0 l 1,6,-1
 500 0 l 1,7,-1
 500 125 l 1,4,-1
250 125 m 1,8,-1
 375 125 l 1,9,-1
 375 0 l 1,10,-1
 250 0 l 1,11,-1
 250 125 l 1,8,-1
625 125 m 1,12,-1
 625 625 l 1,13,-1
 750 625 l 1,14,-1
 750 125 l 1,15,-1
 625 125 l 1,12,-1
375 125 m 1,16,-1
 375 500 l 1,17,-1
 500 500 l 1,18,-1
 500 125 l 1,19,-1
 375 125 l 1,16,-1
EndSplineSet
EndChar

StartChar: x
Encoding: 120 120 91
Width: 875
GlyphClass: 1
Flags: W
LayerCount: 2
Fore
SplineSet
125 125 m 1,0,-1
 250 125 l 1,1,-1
 250 0 l 1,2,-1
 125 0 l 1,3,-1
 125 125 l 1,0,-1
250 250 m 1,4,-1
 375 250 l 1,5,-1
 375 125 l 1,6,-1
 250 125 l 1,7,-1
 250 250 l 1,4,-1
375 375 m 1,8,-1
 500 375 l 1,9,-1
 500 250 l 1,10,-1
 375 250 l 1,11,-1
 375 375 l 1,8,-1
500 500 m 1,12,-1
 625 500 l 1,13,-1
 625 375 l 1,14,-1
 500 375 l 1,15,-1
 500 500 l 1,12,-1
625 625 m 1,16,-1
 750 625 l 1,17,-1
 750 500 l 1,18,-1
 625 500 l 1,19,-1
 625 625 l 1,16,-1
250 500 m 1,20,-1
 375 500 l 1,21,-1
 375 375 l 1,22,-1
 250 375 l 1,23,-1
 250 500 l 1,20,-1
125 625 m 1,24,-1
 250 625 l 1,25,-1
 250 500 l 1,26,-1
 125 500 l 1,27,-1
 125 625 l 1,24,-1
500 250 m 1,28,-1
 625 250 l 1,29,-1
 625 125 l 1,30,-1
 500 125 l 1,31,-1
 500 250 l 1,28,-1
625 125 m 1,32,-1
 750 125 l 1,33,-1
 750 0 l 1,34,-1
 625 0 l 1,35,-1
 625 125 l 1,32,-1
EndSplineSet
EndChar

StartChar: y
Encoding: 121 121 92
Width: 875
GlyphClass: 1
Flags: W
LayerCount: 2
Fore
SplineSet
500 500 m 1,0,-1
 625 500 l 1,1,-1
 625 375 l 1,2,-1
 500 375 l 1,3,-1
 500 500 l 1,0,-1
250 500 m 1,4,-1
 375 500 l 1,5,-1
 375 375 l 1,6,-1
 250 375 l 1,7,-1
 250 500 l 1,4,-1
375 0 m 1,8,-1
 375 375 l 1,9,-1
 500 375 l 1,10,-1
 500 0 l 1,11,-1
 375 0 l 1,8,-1
125 625 m 1,12,-1
 250 625 l 1,13,-1
 250 500 l 1,14,-1
 125 500 l 1,15,-1
 125 625 l 1,12,-1
625 625 m 1,16,-1
 750 625 l 1,17,-1
 750 500 l 1,18,-1
 625 500 l 1,19,-1
 625 625 l 1,16,-1
EndSplineSet
EndChar

StartChar: z
Encoding: 122 122 93
Width: 625
GlyphClass: 1
Flags: W
LayerCount: 2
Fore
SplineSet
125 0 m 1,0,-1
 125 250 l 1,1,-1
 250 250 l 1,2,-1
 250 125 l 1,3,-1
 500 125 l 1,4,-1
 500 0 l 1,5,-1
 125 0 l 1,0,-1
500 625 m 1,6,-1
 500 375 l 1,7,-1
 375 375 l 1,8,-1
 375 500 l 1,9,-1
 125 500 l 1,10,-1
 125 625 l 1,11,-1
 500 625 l 1,6,-1
250 375 m 1,12,-1
 375 375 l 1,13,-1
 375 250 l 1,14,-1
 250 250 l 1,15,-1
 250 375 l 1,12,-1
EndSplineSet
EndChar

StartChar: braceleft
Encoding: 123 123 94
Width: 625
GlyphClass: 1
Flags: W
LayerCount: 2
Fore
SplineSet
500 500 m 1,0,-1
 375 500 l 1,1,-1
 375 375 l 1,2,-1
 250 375 l 1,3,-1
 250 625 l 1,4,-1
 500 625 l 1,5,-1
 500 500 l 1,0,-1
500 0 m 1,6,-1
 250 0 l 1,7,-1
 250 250 l 1,8,-1
 375 250 l 1,9,-1
 375 125 l 1,10,-1
 500 125 l 1,11,-1
 500 0 l 1,6,-1
250 250 m 1,12,-1
 125 250 l 1,13,-1
 125 375 l 1,14,-1
 250 375 l 1,15,-1
 250 250 l 1,12,-1
EndSplineSet
EndChar

StartChar: bar
Encoding: 124 124 95
Width: 375
GlyphClass: 1
Flags: W
LayerCount: 2
Fore
SplineSet
125 -125 m 1,0,-1
 125 750 l 1,1,-1
 250 750 l 1,2,-1
 250 -125 l 1,3,-1
 125 -125 l 1,0,-1
EndSplineSet
EndChar

StartChar: braceright
Encoding: 125 125 96
Width: 625
GlyphClass: 1
Flags: W
LayerCount: 2
Fore
SplineSet
375 375 m 1,0,-1
 250 375 l 1,1,-1
 250 500 l 1,2,-1
 125 500 l 1,3,-1
 125 625 l 1,4,-1
 375 625 l 1,5,-1
 375 375 l 1,0,-1
500 250 m 1,6,-1
 375 250 l 1,7,-1
 375 375 l 1,8,-1
 500 375 l 1,9,-1
 500 250 l 1,6,-1
375 0 m 1,10,-1
 125 0 l 1,11,-1
 125 125 l 1,12,-1
 250 125 l 1,13,-1
 250 250 l 1,14,-1
 375 250 l 1,15,-1
 375 0 l 1,10,-1
EndSplineSet
EndChar

StartChar: asciitilde
Encoding: 126 126 97
Width: 750
GlyphClass: 1
Flags: W
LayerCount: 2
Fore
SplineSet
625 500 m 1,0,-1
 500 500 l 1,1,-1
 500 625 l 1,2,-1
 625 625 l 1,3,-1
 625 500 l 1,0,-1
375 500 m 1,4,-1
 250 500 l 1,5,-1
 250 625 l 1,6,-1
 375 625 l 1,7,-1
 375 500 l 1,4,-1
500 375 m 1,8,-1
 375 375 l 1,9,-1
 375 500 l 1,10,-1
 500 500 l 1,11,-1
 500 375 l 1,8,-1
250 375 m 1,12,-1
 125 375 l 1,13,-1
 125 500 l 1,14,-1
 250 500 l 1,15,-1
 250 375 l 1,12,-1
EndSplineSet
EndChar
